<?xml version="1.0" encoding="iso-8859-1"?>
<!-- Generator: Adobe Illustrator 16.0.0, SVG Export Plug-In . SVG Version: 6.00 Build 0)  -->
<!DOCTYPE svg PUBLIC "-//W3C//DTD SVG 1.1//EN" "http://www.w3.org/Graphics/SVG/1.1/DTD/svg11.dtd">
<svg version="1.1" id="Capa_1" xmlns="http://www.w3.org/2000/svg" xmlns:xlink="http://www.w3.org/1999/xlink" x="0px" y="0px"
	 width="503.844px" height="503.844px" viewBox="0 0 503.844 503.844" style="enable-background:new 0 0 503.844 503.844;"
	 xml:space="preserve">
<g>
	<path d="M453.559,280.093l50.285-39.842l-54.174-34.372l32.666-55.217l-62.896-12.674l10.71-63.256l-63.259,10.707l-12.67-62.892
		l-61.208,33.75L251.402,0.69l-37.158,52.302L160.812,17.48l-15.948,62.145l-62.61-14.005l7.383,63.731l-63.469,9.363l29.73,56.853
		L0,227.054l48.131,42.422L7.229,318.903l60.137,22.355l-20.473,60.803l64.154-0.68l2.678,64.102l59.648-23.627l25.471,58.885
		l47.221-43.434l44.88,45.846l28.521-57.471l58.328,26.717l6.031-63.875l64.026,4.039l-17.259-61.793l61.225-19.176L453.559,280.093
		z M95.394,251.923c0-86.311,70.219-156.528,156.528-156.528c86.309,0,156.527,70.218,156.527,156.528
		c0,86.31-70.218,156.527-156.527,156.527C165.612,408.45,95.394,338.232,95.394,251.923z"/>
</g>
<g>
</g>
<g>
</g>
<g>
</g>
<g>
</g>
<g>
</g>
<g>
</g>
<g>
</g>
<g>
</g>
<g>
</g>
<g>
</g>
<g>
</g>
<g>
</g>
<g>
</g>
<g>
</g>
<g>
</g>
</svg>
