<svg id="Layer_1" data-name="Layer 1" xmlns="http://www.w3.org/2000/svg" viewBox="0 0 1366 768"><defs><style>.cls-1{fill:#ffea2c;}</style></defs><title>sunshine3</title><path class="cls-1" d="M110.81,68.26l12.29-9.73-13.24-8.4,8-13.49-15.36-3.1,2.61-15.45L89.64,20.71,86.54,5.34l-15,8.25L61.42,0,52.34,12.78,39.29,4.1l-3.9,15.19L20.1,15.86l1.8,15.57L6.39,33.72l7.27,13.89L0,55.31,11.76,65.67l-10,12.08,14.69,5.46-5,14.85,15.67-.16.66,15.66,14.57-5.77,6.22,14.38,11.54-10.61,11,11.2,7-14,14.25,6.53,1.48-15.61,15.64,1-4.22-15.1,15-4.68Zm-87.5-6.88A38.24,38.24,0,1,1,61.55,99.62,38.28,38.28,0,0,1,23.31,61.38Z"/><path class="cls-1" d="M266.18,68.26l12.28-9.73-13.23-8.4,8-13.49-15.37-3.1,2.62-15.45L245,20.71,241.91,5.34l-15,8.25L216.79,0l-9.08,12.78L194.65,4.1l-3.89,15.19-15.3-3.43,1.8,15.57-15.5,2.29L169,47.61l-13.66,7.7,11.76,10.36-10,12.08,14.69,5.46-5,14.85,15.67-.16.66,15.66,14.57-5.77,6.22,14.38,11.54-10.61,11,11.2,7-14,14.26,6.53,1.47-15.61,15.64,1-4.22-15.1,15-4.68Zm-87.51-6.88a38.24,38.24,0,1,1,38.24,38.24A38.28,38.28,0,0,1,178.67,61.38Z"/><path class="cls-1" d="M421.54,68.26l12.28-9.73-13.23-8.4,8-13.49-15.37-3.1,2.62-15.45-15.46,2.62L397.27,5.34l-15,8.25L372.15,0l-9.08,12.78L350,4.1l-3.89,15.19-15.3-3.43,1.81,15.57-15.51,2.29,7.26,13.89-13.65,7.7,11.75,10.36-10,12.08,14.69,5.46-5,14.85,15.68-.16.65,15.66,14.57-5.77,6.23,14.38,11.53-10.61,11,11.2,7-14L403,115.25l1.47-15.61,15.64,1-4.21-15.1,15-4.68ZM334,61.38a38.25,38.25,0,1,1,38.24,38.24A38.28,38.28,0,0,1,334,61.38Z"/><path class="cls-1" d="M576.9,68.26l12.29-9.73L576,50.13l8-13.49-15.36-3.1,2.61-15.45-15.45,2.62-3.1-15.37-15,8.25L527.51,0l-9.08,12.78-13-8.68-3.9,15.19-15.3-3.43L488,31.43l-15.51,2.29,7.26,13.89-13.65,7.7,11.76,10.36-10,12.08,14.7,5.46-5,14.85,15.68-.16.65,15.66,14.58-5.77,6.22,14.38,11.54-10.61,11,11.2,7-14,14.25,6.53,1.47-15.61,15.65,1-4.22-15.1,15-4.68Zm-87.51-6.88a38.25,38.25,0,1,1,38.25,38.24A38.29,38.29,0,0,1,489.39,61.38Z"/><path class="cls-1" d="M732.26,68.26l12.29-9.73-13.24-8.4,8-13.49-15.36-3.1,2.61-15.45-15.45,2.62L708,5.34l-15,8.25L682.87,0l-9.08,12.78-13-8.68-3.9,15.19-15.29-3.43,1.8,15.57-15.51,2.29,7.27,13.89-13.66,7.7,11.76,10.36-10,12.08,14.69,5.46-5,14.85,15.67-.16.66,15.66,14.57-5.77L670,122.17l11.54-10.61,11,11.2,7-14,14.25,6.53,1.48-15.61,15.64,1-4.22-15.1,15-4.68Zm-87.5-6.88A38.24,38.24,0,1,1,683,99.62,38.28,38.28,0,0,1,644.76,61.38Z"/><path class="cls-1" d="M887.63,68.26l12.28-9.73-13.23-8.4,8-13.49-15.37-3.1,2.62-15.45-15.46,2.62L863.36,5.34l-15,8.25L838.24,0l-9.08,12.78L816.1,4.1l-3.89,15.19-15.3-3.43,1.8,15.57-15.5,2.29,7.26,13.89-13.66,7.7,11.76,10.36-10,12.08,14.69,5.46-5,14.85,15.67-.16.66,15.66,14.57-5.77,6.22,14.38,11.54-10.61,11,11.2,7-14,14.26,6.53,1.47-15.61,15.64,1L882,85.53l15-4.68Zm-87.51-6.88a38.25,38.25,0,1,1,38.24,38.24A38.28,38.28,0,0,1,800.12,61.38Z"/><path class="cls-1" d="M1043,68.26l12.28-9.73L1042,50.13l8-13.49-15.37-3.1,2.62-15.45-15.46,2.62-3.09-15.37-15,8.25L993.6,0l-9.08,12.78-13-8.68-3.9,15.19-15.3-3.43,1.81,15.57-15.51,2.29,7.26,13.89-13.65,7.7,11.75,10.36-10,12.08,14.69,5.46-5,14.85,15.68-.16.65,15.66,14.57-5.77,6.23,14.38,11.53-10.61,11,11.2,7-14,14.25,6.53L1026,99.64l15.64,1-4.21-15.1,15-4.68Zm-87.51-6.88a38.25,38.25,0,1,1,38.25,38.24A38.29,38.29,0,0,1,955.48,61.38Z"/><path class="cls-1" d="M1198.35,68.26l12.29-9.73-13.24-8.4,8-13.49L1190,33.54l2.61-15.45-15.45,2.62-3.1-15.37-14.95,8.25L1149,0l-9.08,12.78L1126.83,4.1l-3.9,15.19-15.3-3.43,1.81,15.57-15.51,2.29,7.27,13.89-13.66,7.7,11.76,10.36-10,12.08,14.7,5.46-5,14.85,15.67-.16.65,15.66,14.58-5.77,6.22,14.38,11.54-10.61,11,11.2,7-14,14.25,6.53,1.47-15.61,15.65,1-4.22-15.1,15-4.68Zm-87.51-6.88a38.25,38.25,0,1,1,38.25,38.24A38.29,38.29,0,0,1,1110.84,61.38Z"/><path class="cls-1" d="M1353.71,68.26,1366,58.53l-13.24-8.4,8-13.49-15.37-3.1L1348,18.09l-15.46,2.62-3.1-15.37-15,8.25L1304.32,0l-9.08,12.78-13-8.68-3.9,15.19L1263,15.86l1.8,15.57-15.51,2.29,7.27,13.89-13.66,7.7,11.76,10.36-10,12.08,14.69,5.46-5,14.85L1270,97.9l.66,15.66,14.57-5.77,6.22,14.38L1303,111.56l11,11.2,7-14,14.25,6.53,1.48-15.61,15.64,1-4.22-15.1,15-4.68Zm-87.5-6.88a38.24,38.24,0,1,1,38.24,38.24A38.28,38.28,0,0,1,1266.21,61.38Z"/><path class="cls-1" d="M210.81,229.57l12.29-9.73-13.24-8.4,8-13.49-15.36-3.1,2.61-15.45L189.64,182l-3.1-15.37-14.95,8.25-10.17-13.59-9.08,12.78-13.05-8.68-3.9,15.18-15.29-3.42,1.8,15.57L106.39,195l7.27,13.89L100,216.61,111.76,227l-10,12.08,14.69,5.46-5,14.85,15.67-.16.66,15.66,14.57-5.77,6.22,14.38,11.54-10.61,11,11.2,7-14,14.25,6.53L193.78,261l15.64,1-4.22-15.1,15-4.68Zm-87.5-6.88a38.24,38.24,0,1,1,38.24,38.24A38.28,38.28,0,0,1,123.31,222.69Z"/><path class="cls-1" d="M366.18,229.57l12.28-9.73-13.23-8.4,8-13.49-15.37-3.1,2.62-15.45L345,182l-3.09-15.37-15,8.25-10.16-13.59-9.08,12.78-13.06-8.68-3.89,15.18-15.3-3.42,1.8,15.57L261.76,195,269,208.92l-13.66,7.69L267.12,227l-10,12.08,14.69,5.46-5,14.85,15.67-.16.66,15.66,14.57-5.77,6.22,14.38,11.54-10.61,11,11.2,7-14,14.26,6.53L349.14,261l15.64,1-4.22-15.1,15-4.68Zm-87.51-6.88a38.24,38.24,0,1,1,38.24,38.24A38.28,38.28,0,0,1,278.67,222.69Z"/><path class="cls-1" d="M521.54,229.57l12.28-9.73-13.23-8.4,8-13.49-15.37-3.1,2.62-15.45L500.36,182l-3.09-15.37-15,8.25-10.16-13.59-9.08,12.78L450,165.41l-3.89,15.18-15.3-3.42,1.81,15.57L417.12,195l7.26,13.89-13.65,7.69L422.48,227l-10,12.08,14.69,5.46-5,14.85,15.68-.16.65,15.66,14.57-5.77,6.23,14.38,11.53-10.61,11,11.2,7-14L503,276.56,504.5,261l15.64,1-4.21-15.1,15-4.68ZM434,222.69a38.25,38.25,0,1,1,38.24,38.24A38.28,38.28,0,0,1,434,222.69Z"/><path class="cls-1" d="M676.9,229.57l12.29-9.73L676,211.44l8-13.49-15.36-3.1,2.61-15.45L655.73,182l-3.1-15.37-15,8.25-10.17-13.59-9.08,12.78-13-8.68-3.9,15.18-15.3-3.42L588,192.74,572.48,195l7.26,13.89-13.65,7.69L577.85,227l-10,12.08,14.7,5.46-5,14.85,15.68-.16.65,15.66,14.58-5.77,6.22,14.38,11.54-10.61,11,11.2,7-14,14.25,6.53L659.86,261l15.65,1-4.22-15.1,15-4.68Zm-87.51-6.88a38.25,38.25,0,1,1,38.25,38.24A38.29,38.29,0,0,1,589.39,222.69Z"/><path class="cls-1" d="M832.26,229.57l12.29-9.73-13.24-8.4,8-13.49-15.36-3.1,2.61-15.45L811.09,182,808,166.65l-15,8.25-10.17-13.59-9.08,12.78-13-8.68-3.9,15.18-15.29-3.42,1.8,15.57L727.84,195l7.27,13.89-13.66,7.69L733.21,227l-10,12.08,14.69,5.46-5,14.85,15.67-.16.66,15.66,14.57-5.77L770,283.48l11.54-10.61,11,11.2,7-14,14.25,6.53L815.23,261l15.64,1-4.22-15.1,15-4.68Zm-87.5-6.88A38.24,38.24,0,1,1,783,260.93,38.28,38.28,0,0,1,744.76,222.69Z"/><path class="cls-1" d="M987.63,229.57l12.28-9.73-13.23-8.4,8-13.49-15.37-3.1,2.62-15.45L966.45,182l-3.09-15.37-15,8.25-10.16-13.59-9.08,12.78-13.06-8.68-3.89,15.18-15.3-3.42,1.8,15.57L883.21,195l7.26,13.89-13.66,7.69L888.57,227l-10,12.08,14.69,5.46-5,14.85,15.67-.16.66,15.66,14.57-5.77,6.22,14.38,11.54-10.61,11,11.2,7-14,14.26,6.53L970.59,261l15.64,1L982,246.84l15-4.68Zm-87.51-6.88a38.25,38.25,0,1,1,38.24,38.24A38.28,38.28,0,0,1,900.12,222.69Z"/><path class="cls-1" d="M1143,229.57l12.28-9.73-13.23-8.4,8-13.49-15.37-3.1,2.62-15.45L1121.81,182l-3.09-15.37-15,8.25-10.16-13.59-9.08,12.78-13-8.68-3.9,15.18-15.3-3.42,1.81,15.57L1038.57,195l7.26,13.89-13.65,7.69L1043.93,227l-10,12.08,14.69,5.46-5,14.85,15.68-.16.65,15.66,14.57-5.77,6.23,14.38,11.53-10.61,11,11.2,7-14,14.25,6.53L1126,261l15.64,1-4.21-15.1,15-4.68Zm-87.51-6.88a38.25,38.25,0,1,1,38.25,38.24A38.29,38.29,0,0,1,1055.48,222.69Z"/><path class="cls-1" d="M1298.35,229.57l12.29-9.73-13.24-8.4,8-13.49-15.36-3.1,2.61-15.45L1277.18,182l-3.1-15.37-14.95,8.25L1249,161.31l-9.08,12.78-13.05-8.68-3.9,15.18-15.3-3.42,1.81,15.57L1193.93,195l7.27,13.89-13.66,7.69L1199.3,227l-10,12.08,14.7,5.46-5,14.85,15.67-.16.65,15.66,14.58-5.77,6.22,14.38,11.54-10.61,11,11.2,7-14,14.25,6.53,1.47-15.61,15.65,1-4.22-15.1,15-4.68Zm-87.51-6.88a38.25,38.25,0,1,1,38.25,38.24A38.29,38.29,0,0,1,1210.84,222.69Z"/><path class="cls-1" d="M1453.71,229.57l12.29-9.73-13.24-8.4,8-13.49-15.37-3.1L1448,179.4,1432.54,182l-3.1-15.37-15,8.25-10.17-13.59-9.08,12.78-13-8.68-3.9,15.18L1363,177.17l1.8,15.57L1349.29,195l7.27,13.89-13.66,7.69L1354.66,227l-10,12.08,14.69,5.46-5,14.85,15.67-.16.66,15.66,14.57-5.77,6.22,14.38L1403,272.87l11,11.2,7-14,14.25,6.53,1.48-15.61,15.64,1-4.22-15.1,15-4.68Zm-87.5-6.88a38.24,38.24,0,1,1,38.24,38.24A38.28,38.28,0,0,1,1366.21,222.69Z"/><path class="cls-1" d="M41.81,390.88l12.29-9.73-13.24-8.4,8-13.49-15.36-3.1,2.61-15.45-15.45,2.61L17.54,328,2.59,336.2-7.58,322.62l-9.08,12.78-13-8.68-3.9,15.18-15.29-3.42,1.8,15.57-15.51,2.29,7.27,13.89L-69,377.92l11.76,10.37-10,12.07,14.69,5.47-5,14.85,15.67-.16.66,15.66,14.57-5.78,6.22,14.39,11.54-10.61,11,11.2,7-14,14.25,6.53,1.48-15.61,15.64,1-4.22-15.1,15-4.68ZM-45.69,384A38.28,38.28,0,0,1-7.45,345.76,38.28,38.28,0,0,1,30.79,384,38.28,38.28,0,0,1-7.45,422.24,38.28,38.28,0,0,1-45.69,384Z"/><path class="cls-1" d="M197.18,390.88l12.28-9.73-13.23-8.4,8-13.49-15.37-3.1,2.62-15.45L176,343.32,172.91,328l-15,8.24-10.16-13.58-9.08,12.78-13.06-8.68-3.89,15.18-15.3-3.42,1.8,15.57-15.5,2.29L100,370.23l-13.66,7.69,11.76,10.37-10,12.07,14.69,5.47-5,14.85,15.67-.16.66,15.66,14.57-5.78,6.22,14.39,11.54-10.61,11,11.2,7-14,14.26,6.53,1.47-15.61,15.64,1-4.22-15.1,15-4.68ZM109.67,384a38.24,38.24,0,1,1,38.24,38.24A38.28,38.28,0,0,1,109.67,384Z"/><path class="cls-1" d="M352.54,390.88l12.28-9.73-13.23-8.4,8-13.49-15.37-3.1,2.62-15.45-15.46,2.61L328.27,328l-15,8.24-10.16-13.58-9.08,12.78L281,326.72l-3.89,15.18-15.3-3.42,1.81,15.57-15.51,2.29,7.26,13.89-13.65,7.69,11.75,10.37-10,12.07,14.69,5.47-5,14.85,15.68-.16.65,15.66,14.57-5.78,6.23,14.39,11.53-10.61,11,11.2,7-14L334,437.87l1.47-15.61,15.64,1-4.21-15.1,15-4.68ZM265,384a38.25,38.25,0,1,1,38.24,38.24A38.28,38.28,0,0,1,265,384Z"/><path class="cls-1" d="M507.9,390.88l12.29-9.73L507,372.75l8-13.49-15.36-3.1,2.61-15.45-15.45,2.61L483.63,328l-14.95,8.24-10.17-13.58-9.08,12.78-13.05-8.68-3.9,15.18-15.3-3.42L419,354.05l-15.51,2.29,7.26,13.89-13.65,7.69,11.76,10.37-10,12.07,14.7,5.47-5,14.85,15.68-.16.65,15.66,14.58-5.78,6.22,14.39,11.54-10.61,11,11.2,7-14,14.25,6.53,1.47-15.61,15.65,1-4.22-15.1,15-4.68ZM420.39,384a38.25,38.25,0,1,1,38.25,38.24A38.29,38.29,0,0,1,420.39,384Z"/><path class="cls-1" d="M663.26,390.88l12.29-9.73-13.24-8.4,8-13.49-15.36-3.1,2.61-15.45-15.45,2.61L639,328l-15,8.24-10.17-13.58-9.08,12.78-13-8.68-3.9,15.18-15.29-3.42,1.8,15.57-15.51,2.29,7.27,13.89-13.66,7.69,11.76,10.37-10,12.07,14.69,5.47-5,14.85,15.67-.16.66,15.66,14.57-5.78L601,444.79l11.54-10.61,11,11.2,7-14,14.25,6.53,1.48-15.61,15.64,1-4.22-15.1,15-4.68ZM575.76,384A38.24,38.24,0,1,1,614,422.24,38.28,38.28,0,0,1,575.76,384Z"/><path class="cls-1" d="M818.63,390.88l12.28-9.73-13.23-8.4,8-13.49-15.37-3.1,2.62-15.45-15.46,2.61L794.36,328l-15,8.24-10.16-13.58-9.08,12.78-13.06-8.68-3.89,15.18-15.3-3.42,1.8,15.57-15.5,2.29,7.26,13.89-13.66,7.69,11.76,10.37-10,12.07,14.69,5.47-5,14.85,15.67-.16.66,15.66,14.57-5.78,6.22,14.39,11.54-10.61,11,11.2,7-14,14.26,6.53,1.47-15.61,15.64,1L813,408.15l15-4.68ZM731.12,384a38.25,38.25,0,1,1,38.24,38.24A38.28,38.28,0,0,1,731.12,384Z"/><path class="cls-1" d="M974,390.88l12.28-9.73L973,372.75l8-13.49-15.37-3.1,2.62-15.45-15.46,2.61L949.72,328l-15,8.24L924.6,322.62l-9.08,12.78-13-8.68-3.9,15.18-15.3-3.42,1.81,15.57-15.51,2.29,7.26,13.89-13.65,7.69,11.75,10.37-10,12.07,14.69,5.47-5,14.85,15.68-.16.65,15.66,14.57-5.78,6.23,14.39,11.53-10.61,11,11.2,7-14,14.25,6.53L957,422.26l15.64,1-4.21-15.1,15-4.68ZM886.48,384a38.25,38.25,0,1,1,38.25,38.24A38.29,38.29,0,0,1,886.48,384Z"/><path class="cls-1" d="M1129.35,390.88l12.29-9.73-13.24-8.4,8-13.49-15.36-3.1,2.61-15.45-15.45,2.61-3.1-15.36-14.95,8.24L1080,322.62l-9.08,12.78-13.05-8.68-3.9,15.18-15.3-3.42,1.81,15.57-15.51,2.29,7.27,13.89-13.66,7.69,11.76,10.37-10,12.07,14.7,5.47-5,14.85,15.67-.16.65,15.66,14.58-5.78,6.22,14.39,11.54-10.61,11,11.2,7-14,14.25,6.53,1.47-15.61,15.65,1-4.22-15.1,15-4.68ZM1041.84,384a38.25,38.25,0,1,1,38.25,38.24A38.29,38.29,0,0,1,1041.84,384Z"/><path class="cls-1" d="M1284.71,390.88l12.29-9.73-13.24-8.4,8-13.49-15.37-3.1,2.62-15.45-15.46,2.61-3.1-15.36-15,8.24-10.17-13.58-9.08,12.78-13-8.68-3.9,15.18L1194,338.48l1.8,15.57-15.51,2.29,7.27,13.89-13.66,7.69,11.76,10.37-10,12.07,14.69,5.47-5,14.85,15.67-.16.66,15.66,14.57-5.78,6.22,14.39L1234,434.18l11,11.2,7-14,14.25,6.53,1.48-15.61,15.64,1-4.22-15.1,15-4.68Zm-87.5-6.88a38.24,38.24,0,1,1,38.24,38.24A38.28,38.28,0,0,1,1197.21,384Z"/><path class="cls-1" d="M200.81,552.19l12.29-9.73-13.24-8.4,8-13.49-15.36-3.1L195.09,502l-15.45,2.61-3.1-15.36-14.95,8.24-10.17-13.58-9.08,12.78L129.29,488l-3.9,15.18-15.29-3.42,1.8,15.57-15.51,2.29,7.27,13.89L90,539.23l11.76,10.37-10,12.07,14.69,5.47-5,14.85,15.67-.16.66,15.66,14.57-5.78,6.22,14.39,11.54-10.61,11,11.2,7-14,14.25,6.53,1.48-15.61,15.64,1-4.22-15.1,15-4.68Zm-87.5-6.88a38.24,38.24,0,1,1,38.24,38.24A38.28,38.28,0,0,1,113.31,545.31Z"/><path class="cls-1" d="M356.18,552.19l12.28-9.73-13.23-8.4,8-13.49-15.37-3.1L350.46,502,335,504.63l-3.09-15.36-15,8.24-10.16-13.58-9.08,12.78L284.65,488l-3.89,15.18-15.3-3.42,1.8,15.57-15.5,2.29L259,531.54l-13.66,7.69,11.76,10.37-10,12.07,14.69,5.47-5,14.85,15.67-.16.66,15.66,14.57-5.78,6.22,14.39,11.54-10.61,11,11.2,7-14,14.26,6.53,1.47-15.61,15.64,1-4.22-15.1,15-4.68Zm-87.51-6.88a38.24,38.24,0,1,1,38.24,38.24A38.28,38.28,0,0,1,268.67,545.31Z"/><path class="cls-1" d="M511.54,552.19l12.28-9.73-13.23-8.4,8-13.49-15.37-3.1L505.82,502l-15.46,2.61-3.09-15.36-15,8.24-10.16-13.58-9.08,12.78L440,488l-3.89,15.18-15.3-3.42,1.81,15.57-15.51,2.29,7.26,13.89-13.65,7.69,11.75,10.37-10,12.07,14.69,5.47-5,14.85,15.68-.16.65,15.66,14.57-5.78,6.23,14.39,11.53-10.61,11,11.2,7-14L493,599.18l1.47-15.61,15.64,1-4.21-15.1,15-4.68ZM424,545.31a38.25,38.25,0,1,1,38.24,38.24A38.28,38.28,0,0,1,424,545.31Z"/><path class="cls-1" d="M666.9,552.19l12.29-9.73L666,534.06l8-13.49-15.36-3.1L661.18,502l-15.45,2.61-3.1-15.36-15,8.24-10.17-13.58-9.08,12.78-13-8.68-3.9,15.18-15.3-3.42L578,515.36l-15.51,2.29,7.26,13.89-13.65,7.69,11.76,10.37-10,12.07,14.7,5.47-5,14.85,15.68-.16.65,15.66,14.58-5.78,6.22,14.39,11.54-10.61,11,11.2,7-14,14.25,6.53,1.47-15.61,15.65,1-4.22-15.1,15-4.68Zm-87.51-6.88a38.25,38.25,0,1,1,38.25,38.24A38.29,38.29,0,0,1,579.39,545.31Z"/><path class="cls-1" d="M822.26,552.19l12.29-9.73-13.24-8.4,8-13.49-15.36-3.1L816.54,502l-15.45,2.61L798,489.27l-15,8.24-10.17-13.58-9.08,12.78-13-8.68-3.9,15.18-15.29-3.42,1.8,15.57-15.51,2.29,7.27,13.89-13.66,7.69,11.76,10.37-10,12.07,14.69,5.47-5,14.85,15.67-.16.66,15.66,14.57-5.78L760,606.1l11.54-10.61,11,11.2,7-14,14.25,6.53,1.48-15.61,15.64,1-4.22-15.1,15-4.68Zm-87.5-6.88A38.24,38.24,0,1,1,773,583.55,38.28,38.28,0,0,1,734.76,545.31Z"/><path class="cls-1" d="M977.63,552.19l12.28-9.73-13.23-8.4,8-13.49-15.37-3.1L971.91,502l-15.46,2.61-3.09-15.36-15,8.24-10.16-13.58-9.08,12.78L906.1,488l-3.89,15.18-15.3-3.42,1.8,15.57-15.5,2.29,7.26,13.89-13.66,7.69,11.76,10.37-10,12.07,14.69,5.47-5,14.85,15.67-.16.66,15.66,14.57-5.78,6.22,14.39,11.54-10.61,11,11.2,7-14,14.26,6.53,1.47-15.61,15.64,1L972,569.46l15-4.68Zm-87.51-6.88a38.25,38.25,0,1,1,38.24,38.24A38.28,38.28,0,0,1,890.12,545.31Z"/><path class="cls-1" d="M1133,552.19l12.28-9.73-13.23-8.4,8-13.49-15.37-3.1,2.62-15.45-15.46,2.61-3.09-15.36-15,8.24-10.16-13.58-9.08,12.78-13-8.68-3.9,15.18-15.3-3.42,1.81,15.57-15.51,2.29,7.26,13.89-13.65,7.69,11.75,10.37-10,12.07,14.69,5.47-5,14.85,15.68-.16.65,15.66,14.57-5.78,6.23,14.39,11.53-10.61,11,11.2,7-14,14.25,6.53,1.47-15.61,15.64,1-4.21-15.1,15-4.68Zm-87.51-6.88a38.25,38.25,0,1,1,38.25,38.24A38.29,38.29,0,0,1,1045.48,545.31Z"/><path class="cls-1" d="M1288.35,552.19l12.29-9.73-13.24-8.4,8-13.49-15.36-3.1,2.61-15.45-15.45,2.61-3.1-15.36-14.95,8.24L1239,483.93l-9.08,12.78L1216.83,488l-3.9,15.18-15.3-3.42,1.81,15.57-15.51,2.29,7.27,13.89-13.66,7.69,11.76,10.37-10,12.07,14.7,5.47L1189,582l15.67-.16.65,15.66,14.58-5.78,6.22,14.39,11.54-10.61,11,11.2,7-14,14.25,6.53,1.47-15.61,15.65,1-4.22-15.1,15-4.68Zm-87.51-6.88a38.25,38.25,0,1,1,38.25,38.24A38.29,38.29,0,0,1,1200.84,545.31Z"/><path class="cls-1" d="M1443.71,552.19l12.29-9.73-13.24-8.4,8-13.49-15.37-3.1L1438,502l-15.46,2.61-3.1-15.36-15,8.24-10.17-13.58-9.08,12.78-13-8.68-3.9,15.18L1353,499.79l1.8,15.57-15.51,2.29,7.27,13.89-13.66,7.69,11.76,10.37-10,12.07,14.69,5.47-5,14.85,15.67-.16.66,15.66,14.57-5.78,6.22,14.39L1393,595.49l11,11.2,7-14,14.25,6.53,1.48-15.61,15.64,1-4.22-15.1,15-4.68Zm-87.5-6.88a38.24,38.24,0,1,1,38.24,38.24A38.28,38.28,0,0,1,1356.21,545.31Z"/><path class="cls-1" d="M111.18,713.5l12.28-9.73-13.23-8.4,8-13.49-15.37-3.1,2.62-15.45L90,665.94l-3.09-15.36-15,8.24L61.79,645.24,52.71,658l-13.06-8.68-3.89,15.18-15.3-3.42,1.8,15.57L6.76,679,14,692.85.36,700.54l11.76,10.37L2.13,723l14.69,5.47-5,14.85,15.67-.16.66,15.66L42.72,753l6.22,14.39L60.48,756.8l11,11.2,7-14,14.26,6.53,1.47-15.61,15.64,1-4.22-15.1,15-4.69Zm-87.51-6.88a38.24,38.24,0,1,1,38.24,38.24A38.28,38.28,0,0,1,23.67,706.62Z"/><path class="cls-1" d="M266.54,713.5l12.28-9.73-13.23-8.4,8-13.49-15.37-3.1,2.62-15.45-15.46,2.61-3.09-15.36-15,8.24-10.16-13.58L208.07,658,195,649.34l-3.89,15.18-15.3-3.42,1.81,15.57L162.12,679l7.26,13.89-13.65,7.69,11.75,10.37-10,12.07,14.69,5.47-5,14.85,15.68-.16.65,15.66L198.08,753l6.23,14.39,11.53-10.61,11,11.2,7-14L248,760.49l1.47-15.61,15.64,1-4.21-15.1,15-4.69ZM179,706.62a38.25,38.25,0,1,1,38.24,38.24A38.28,38.28,0,0,1,179,706.62Z"/><path class="cls-1" d="M421.9,713.5l12.29-9.73L421,695.37l8-13.49-15.36-3.1,2.61-15.45-15.45,2.61-3.1-15.36-14.95,8.24-10.17-13.58L363.43,658l-13.05-8.68-3.9,15.18-15.3-3.42L333,676.67,317.48,679l7.26,13.89-13.65,7.69,11.76,10.37-10,12.07,14.7,5.47-5,14.85,15.68-.16.65,15.66L353.45,753l6.22,14.39,11.54-10.61,11,11.2,7-14,14.25,6.53,1.47-15.61,15.65,1-4.22-15.1,15-4.69Zm-87.51-6.88a38.25,38.25,0,1,1,38.25,38.24A38.29,38.29,0,0,1,334.39,706.62Z"/><path class="cls-1" d="M577.26,713.5l12.29-9.73-13.24-8.4,8-13.49-15.36-3.1,2.61-15.45-15.45,2.61L553,650.58l-15,8.24-10.17-13.58L518.79,658l-13-8.68-3.9,15.18-15.29-3.42,1.8,15.57L472.84,679l7.27,13.89-13.66,7.69,11.76,10.37-10,12.07,14.69,5.47-5,14.85,15.67-.16.66,15.66L508.81,753,515,767.41l11.54-10.61,11,11.2,7-14,14.25,6.53,1.48-15.61,15.64,1-4.22-15.1,15-4.69Zm-87.5-6.88A38.24,38.24,0,1,1,528,744.86,38.28,38.28,0,0,1,489.76,706.62Z"/><path class="cls-1" d="M732.63,713.5l12.28-9.73-13.23-8.4,8-13.49-15.37-3.1,2.62-15.45-15.46,2.61-3.09-15.36-15,8.24-10.16-13.58L674.16,658l-13.06-8.68-3.89,15.18-15.3-3.42,1.8,15.57L628.21,679l7.26,13.89-13.66,7.69,11.76,10.37-10,12.07,14.69,5.47-5,14.85,15.67-.16.66,15.66L664.17,753l6.22,14.39,11.54-10.61,11,11.2,7-14,14.26,6.53,1.47-15.61,15.64,1L727,730.77l15-4.69Zm-87.51-6.88a38.25,38.25,0,1,1,38.24,38.24A38.28,38.28,0,0,1,645.12,706.62Z"/><path class="cls-1" d="M888,713.5l12.28-9.73L887,695.37l8-13.49-15.37-3.1,2.62-15.45-15.46,2.61-3.09-15.36-15,8.24L838.6,645.24,829.52,658l-13-8.68-3.9,15.18-15.3-3.42,1.81,15.57L783.57,679l7.26,13.89-13.65,7.69,11.75,10.37-10,12.07,14.69,5.47-5,14.85,15.68-.16L805,758.8,819.53,753l6.23,14.39,11.53-10.61,11,11.2,7-14,14.25,6.53L871,744.88l15.64,1-4.21-15.1,15-4.69Zm-87.51-6.88a38.25,38.25,0,1,1,38.25,38.24A38.29,38.29,0,0,1,800.48,706.62Z"/><path class="cls-1" d="M1043.35,713.5l12.29-9.73-13.24-8.4,8-13.49-15.36-3.1,2.61-15.45-15.45,2.61-3.1-15.36-15,8.24L994,645.24,984.88,658l-13-8.68-3.9,15.18-15.3-3.42,1.81,15.57L938.93,679l7.27,13.89-13.66,7.69,11.76,10.37L934.3,723l14.7,5.47-5,14.85,15.67-.16.65,15.66L974.9,753l6.22,14.39,11.54-10.61,11,11.2,7-14,14.25,6.53,1.47-15.61,15.65,1-4.22-15.1,15-4.69Zm-87.51-6.88a38.25,38.25,0,1,1,38.25,38.24A38.29,38.29,0,0,1,955.84,706.62Z"/><path class="cls-1" d="M1198.71,713.5l12.29-9.73-13.24-8.4,8-13.49-15.37-3.1,2.62-15.45-15.46,2.61-3.1-15.36-15,8.24-10.17-13.58L1140.24,658l-13-8.68-3.9,15.18L1108,661.1l1.8,15.57L1094.29,679l7.27,13.89-13.66,7.69,11.76,10.37-10,12.07,14.69,5.47-5,14.85,15.67-.16.66,15.66,14.57-5.78,6.22,14.39L1148,756.8l11,11.2,7-14,14.25,6.53,1.48-15.61,15.64,1-4.22-15.1,15-4.69Zm-87.5-6.88a38.24,38.24,0,1,1,38.24,38.24A38.28,38.28,0,0,1,1111.21,706.62Z"/></svg>