<svg id="Layer_1" data-name="Layer 1" xmlns="http://www.w3.org/2000/svg" viewBox="0 0 1366 768"><defs><style>.cls-1{fill:#ffd500;}</style></defs><title>sunshine1</title><path class="cls-1" d="M816.23,402.61l33.22-26.32-35.79-22.71,21.58-36.48-41.56-8.38,7.08-41.79L759,274l-8.37-41.55-40.44,22.3L682.66,218l-24.55,34.55L622.8,229.1l-10.54,41.06-41.36-9.25,4.87,42.1-41.93,6.19,19.64,37.57-36.93,20.8,31.8,28-27,32.66L561.06,443,547.53,483.2l42.39-.45,1.77,42.35,39.41-15.61,16.83,38.91,31.2-28.7L708.78,550l18.85-38,38.54,17.65,4-42.2,42.3,2.67-11.4-40.83,40.45-12.67ZM579.58,384A103.42,103.42,0,1,1,683,487.42,103.53,103.53,0,0,1,579.58,384Z"/><path class="cls-1" d="M384.73,184.61,418,158.28l-35.79-22.71,21.58-36.48-41.56-8.37,7.08-41.8L327.46,56l-8.37-41.56-40.44,22.3L251.16,0,226.61,34.56,191.3,11.09,180.76,52.15,139.4,42.9,144.27,85,102.34,91.2,122,128.76l-36.93,20.8,31.8,28-27,32.66L129.56,225,116,265.2l42.39-.45,1.77,42.35,39.41-15.61,16.83,38.91,31.2-28.7L277.28,332l18.85-38,38.54,17.65,4-42.2,42.3,2.66-11.4-40.82L410,218.64ZM148.08,166A103.42,103.42,0,1,1,251.5,269.42,103.54,103.54,0,0,1,148.08,166Z"/><path class="cls-1" d="M1247.73,184.61,1281,158.28l-35.79-22.71,21.58-36.48-41.56-8.37,7.08-41.8L1190.46,56l-8.37-41.56-40.44,22.3L1114.16,0l-24.55,34.56L1054.3,11.09l-10.54,41.06L1002.4,42.9,1007.27,85,965.34,91.2,985,128.76l-36.93,20.8,31.8,28-27,32.66L992.56,225,979,265.2l42.39-.45,1.77,42.35,39.41-15.61,16.83,38.91,31.2-28.7L1140.28,332l18.85-38,38.54,17.65,4-42.2,42.3,2.66-11.4-40.82L1273,218.64ZM1011.08,166A103.42,103.42,0,1,1,1114.5,269.42,103.54,103.54,0,0,1,1011.08,166Z"/><path class="cls-1" d="M392.73,620.62,426,594.29l-35.79-22.71,21.58-36.48-41.56-8.37,7.08-41.8L335.46,492l-8.37-41.56-40.44,22.3L259.16,436l-24.55,34.56L199.3,447.1l-10.54,41.07-41.36-9.26L152.27,521l-41.93,6.19L130,564.77,93.05,585.58l31.8,28-27,32.66L137.56,661,124,701.21l42.39-.45,1.77,42.35L207.6,727.5l16.83,38.91,31.2-28.7L285.28,768l18.85-38,38.54,17.65,4-42.2,42.3,2.67-11.4-40.83L418,654.65ZM156.08,602A103.42,103.42,0,1,1,259.5,705.43,103.54,103.54,0,0,1,156.08,602Z"/><path class="cls-1" d="M1239.73,620.62,1273,594.29l-35.79-22.71,21.58-36.48-41.56-8.37,7.08-41.8-41.8,7.08-8.37-41.56-40.44,22.3L1106.16,436l-24.55,34.56L1046.3,447.1l-10.54,41.07-41.36-9.26L999.27,521l-41.93,6.19L977,564.77l-36.93,20.81,31.8,28-27,32.66L984.56,661,971,701.21l42.39-.45,1.77,42.35,39.41-15.61,16.83,38.91,31.2-28.7L1132.28,768l18.85-38,38.54,17.65,4-42.2,42.3,2.67-11.4-40.83L1265,654.65ZM1003.08,602A103.42,103.42,0,1,1,1106.5,705.43,103.54,103.54,0,0,1,1003.08,602Z"/></svg>