<svg id="Layer_1" data-name="Layer 1" xmlns="http://www.w3.org/2000/svg" viewBox="0 0 1366 768"><defs><style>.cls-1{fill:#fff800;}</style></defs><title>sunshine2</title><path class="cls-1" d="M285.19,132.59l23.86-18.91L283.34,97.37l15.5-26.2-29.84-6,5.08-30-30,5.08-6-29.85L209,26.39,189.25,0,171.62,24.82,146.26,8,138.7,37.46,109,30.81l3.51,30.25L82.37,65.5l14.11,27L70,107.42l22.84,20.13L73.38,151l28.54,10.61L92.2,190.47l30.45-.32,1.27,30.42,28.3-11.21,12.09,27.94,22.41-20.61L208,238.44l13.53-27.27,27.68,12.68,2.86-30.31,30.39,1.91-8.19-29.32,29-9.1Zm-170-13.37A74.28,74.28,0,1,1,189.5,193.5,74.36,74.36,0,0,1,115.22,119.22Z"/><path class="cls-1" d="M612.19,132.59l23.86-18.91L610.34,97.37l15.5-26.2-29.84-6,5.08-30-30,5.08-6-29.85-29,16L516.25,0,498.62,24.82,473.26,8,465.7,37.46,436,30.81l3.51,30.25L409.37,65.5l14.11,27L397,107.42l22.84,20.13L400.38,151l28.54,10.61-9.72,28.85,30.45-.32,1.27,30.42,28.3-11.21,12.09,27.94,22.41-20.61L535,238.44l13.53-27.27,27.68,12.68,2.86-30.31,30.39,1.91-8.19-29.32,29.05-9.1Zm-170-13.37A74.28,74.28,0,1,1,516.5,193.5,74.36,74.36,0,0,1,442.22,119.22Z"/><path class="cls-1" d="M925.19,132.59l23.86-18.91L923.34,97.37l15.5-26.2-29.84-6,5.08-30-30,5.08-6-29.85-29,16L829.25,0,811.62,24.82,786.26,8,778.7,37.46,749,30.81l3.51,30.25L722.37,65.5l14.11,27L710,107.42l22.84,20.13L713.38,151l28.54,10.61-9.72,28.85,30.45-.32,1.27,30.42,28.3-11.21,12.09,27.94,22.41-20.61L848,238.44l13.53-27.27,27.68,12.68,2.86-30.31,30.39,1.91-8.19-29.32,29.05-9.1Zm-170-13.37A74.28,74.28,0,1,1,829.5,193.5,74.36,74.36,0,0,1,755.22,119.22Z"/><path class="cls-1" d="M1272.19,132.59l23.86-18.91-25.71-16.31,15.5-26.2-29.84-6,5.08-30-30,5.08-6-29.85-29,16L1176.25,0l-17.63,24.82L1133.26,8l-7.56,29.49L1096,30.81l3.51,30.25-30.12,4.44,14.11,27L1057,107.42l22.84,20.13L1060.38,151l28.54,10.61-9.72,28.85,30.45-.32,1.27,30.42,28.3-11.21,12.09,27.94,22.41-20.61,21.3,21.75,13.53-27.27,27.68,12.68,2.86-30.31,30.39,1.91-8.19-29.32,29-9.1Zm-170-13.37a74.28,74.28,0,1,1,74.28,74.28A74.36,74.36,0,0,1,1102.22,119.22Z"/><path class="cls-1" d="M474.19,379.12l23.86-18.91L472.34,343.9l15.5-26.2-29.84-6,5.08-30-30,5.08-6-29.85-29.05,16-19.75-26.39-17.63,24.82L335.26,254.5,327.7,284,298,277.34l3.51,30.25L271.37,312l14.11,27L259,354l22.84,20.13-19.41,23.46,28.54,10.61L281.2,437l30.45-.32,1.27,30.42,28.3-11.22,12.09,27.95,22.41-20.61L397,485l13.53-27.27,27.68,12.68,2.86-30.31L471.48,442l-8.19-29.32,29-9.1Zm-170-13.37A74.28,74.28,0,1,1,378.5,440,74.36,74.36,0,0,1,304.22,365.75Z"/><path class="cls-1" d="M801.19,379.12l23.86-18.91L799.34,343.9l15.5-26.2-29.84-6,5.08-30-30,5.08-6-29.85-29,16-19.75-26.39-17.63,24.82L662.26,254.5,654.7,284,625,277.34l3.51,30.25L598.37,312l14.11,27L586,354l22.84,20.13-19.41,23.46,28.54,10.61L608.2,437l30.45-.32,1.27,30.42,28.3-11.22,12.09,27.95,22.41-20.61L724,485l13.53-27.27,27.68,12.68,2.86-30.31L798.48,442l-8.19-29.32,29.05-9.1Zm-170-13.37A74.28,74.28,0,1,1,705.5,440,74.36,74.36,0,0,1,631.22,365.75Z"/><path class="cls-1" d="M1114.19,379.12l23.86-18.91-25.71-16.31,15.5-26.2-29.84-6,5.08-30-30,5.08-6-29.85-29,16-19.75-26.39-17.63,24.82L975.26,254.5,967.7,284,938,277.34l3.51,30.25L911.37,312l14.11,27L899,354l22.84,20.13-19.41,23.46,28.54,10.61L921.2,437l30.45-.32,1.27,30.42,28.3-11.22,12.09,27.95,22.41-20.61L1037,485l13.53-27.27,27.68,12.68,2.86-30.31,30.39,1.91-8.19-29.32,29-9.1Zm-170-13.37A74.28,74.28,0,1,1,1018.5,440,74.36,74.36,0,0,1,944.22,365.75Z"/><path class="cls-1" d="M1461.19,379.12l23.86-18.91-25.71-16.31,15.5-26.2-29.84-6,5.08-30-30,5.08-6-29.85-29,16-19.75-26.39-17.63,24.82-25.36-16.85L1314.7,284,1285,277.34l3.51,30.25L1258.37,312l14.11,27L1246,354l22.84,20.13-19.41,23.46,28.54,10.61L1268.2,437l30.45-.32,1.27,30.42,28.3-11.22,12.09,27.95,22.41-20.61L1384,485l13.53-27.27,27.68,12.68,2.86-30.31,30.39,1.91-8.19-29.32,29-9.1Zm-170-13.37A74.28,74.28,0,1,1,1365.5,440,74.36,74.36,0,0,1,1291.22,365.75Z"/><path class="cls-1" d="M229.19,647.12l23.86-18.91L227.34,611.9l15.5-26.2-29.84-6,5.08-30-30,5.08-6-29.85-29.05,16-19.75-26.39-17.63,24.82L90.26,522.5,82.7,552,53,545.34l3.51,30.25L26.37,580l14.11,27L14,622l22.84,20.13L17.38,665.54l28.54,10.61L36.2,705l30.45-.32,1.27,30.42,28.3-11.22,12.09,28,22.41-20.61L152,753l13.53-27.27,27.68,12.68,2.86-30.31L226.48,710l-8.19-29.32,29.05-9.1Zm-170-13.37A74.28,74.28,0,1,1,133.5,708,74.36,74.36,0,0,1,59.22,633.75Z"/><path class="cls-1" d="M556.19,647.12l23.86-18.91L554.34,611.9l15.5-26.2-29.84-6,5.08-30-30,5.08-6-29.85-29.05,16-19.75-26.39-17.63,24.82L417.26,522.5,409.7,552,380,545.34l3.51,30.25L353.37,580l14.11,27L341,622l22.84,20.13-19.41,23.46,28.54,10.61L363.2,705l30.45-.32,1.27,30.42,28.3-11.22,12.09,28,22.41-20.61L479,753l13.53-27.27,27.68,12.68,2.86-30.31L553.48,710l-8.19-29.32,29.05-9.1Zm-170-13.37A74.28,74.28,0,1,1,460.5,708,74.36,74.36,0,0,1,386.22,633.75Z"/><path class="cls-1" d="M869.19,647.12l23.86-18.91L867.34,611.9l15.5-26.2-29.84-6,5.08-30-30,5.08-6-29.85-29,16-19.75-26.39-17.63,24.82L730.26,522.5,722.7,552,693,545.34l3.51,30.25L666.37,580l14.11,27L654,622l22.84,20.13-19.41,23.46,28.54,10.61L676.2,705l30.45-.32,1.27,30.42,28.3-11.22,12.09,28,22.41-20.61L792,753l13.53-27.27,27.68,12.68,2.86-30.31L866.48,710l-8.19-29.32,29.05-9.1Zm-170-13.37A74.28,74.28,0,1,1,773.5,708,74.36,74.36,0,0,1,699.22,633.75Z"/><path class="cls-1" d="M1216.19,647.12l23.86-18.91-25.71-16.31,15.5-26.2-29.84-6,5.08-30-30,5.08-6-29.85-29,16-19.75-26.39-17.63,24.82-25.36-16.85L1069.7,552,1040,545.34l3.51,30.25L1013.37,580l14.11,27L1001,622l22.84,20.13-19.41,23.46,28.54,10.61L1023.2,705l30.45-.32,1.27,30.42,28.3-11.22,12.09,28,22.41-20.61L1139,753l13.53-27.27,27.68,12.68,2.86-30.31,30.39,1.91-8.19-29.32,29-9.1Zm-170-13.37A74.28,74.28,0,1,1,1120.5,708,74.36,74.36,0,0,1,1046.22,633.75Z"/></svg>